<?xml version="1.0" encoding="UTF-8"?>
<svg id="_Слой_1" data-name="Слой 1" xmlns="http://www.w3.org/2000/svg" viewBox="0 0 300 300">
  <path d="M250.77,14.76c5.25,8.06,6.85,20.42,1.49,29.24-6.37,10.49-19.33,23.35-27.33,33.17-17.38,21.32-34.52,42.99-52.29,63.83l-.1,74.22c-.53,7.78-10.59,12.25-16.53,16.16-19.97,13.15-40.39,25.8-60.71,38.32-6.25,1.35-12.1-2.92-12.38-9.51l-.1-119.19c-1.85-3.35-5.3-5.88-7.51-8.54-15.89-19.16-31.26-38.71-46.96-58.04C20.53,64.79,1.36,45.97.15,33.99-1.5,17.67,10.46,1.93,26.59.04l201.1-.04c10.65.77,17.38,6.02,23.08,14.76ZM103.06,134.31v106.8l49.67-31.84.76-75.42c22.38-29.03,45.95-56.96,69.01-85.41,3.76-4.63,13-12.49,12.81-18.73-.17-5.44-4.89-9.59-10.06-9.73H30.83c-13.39,2.27-12.63,11.23-5.19,20.36,17.56,21.55,36.11,42.71,53.65,64.29,7.1,8.74,17,19.79,22.54,29.24.35.6,1.19.38,1.22.43Z"/>
  <path d="M260.27,265.47l23.75-23.44c9.13-7.34,20.98,4.44,13.74,14.08-10.85,14.44-29.6,27.12-41.13,41.53-3.46,3.12-9.36,3.13-12.82,0l-42.45-42.37c-6-9.71,6.67-20.17,15.05-13.25l23.75,23.44v-118.36c0-.18,1.49-2.66,1.83-3.12,4.16-5.66,12.29-5.67,16.45,0,.34.46,1.83,2.94,1.83,3.12v118.36Z"/>
</svg>